<svg width="24" height="24" viewBox="0 0 24 24" fill="none" xmlns="http://www.w3.org/2000/svg">
<path d="M11.1003 3.00195C7.45138 3.00851 5.54061 3.09809 4.3195 4.31918C3.00171 5.63693 3.00171 7.75783 3.00171 11.9996C3.00171 16.2414 3.00171 18.3623 4.3195 19.68C5.63728 20.9978 7.75824 20.9978 12.0002 20.9978C16.242 20.9978 18.363 20.9978 19.6808 19.68C20.9019 18.459 20.9915 16.5483 20.9981 12.8995" stroke="#F2EAFD" stroke-width="1.5" stroke-linecap="round" stroke-linejoin="round"/>
<path d="M20.4802 3.51739L14.9309 9.05138M20.4802 3.51739C19.9862 3.02288 16.6586 3.06898 15.9551 3.07898M20.4802 3.51739C20.9741 4.0119 20.9281 7.34317 20.9181 8.04742" stroke="#F2EAFD" stroke-width="1.5" stroke-linecap="round" stroke-linejoin="round"/>
</svg>
