<svg width="73" height="72" viewBox="0 0 73 72" fill="none" xmlns="http://www.w3.org/2000/svg">
<path d="M0.5 16C0.5 7.16344 7.66344 0 16.5 0H56.5C65.3366 0 72.5 7.16344 72.5 16V56C72.5 64.8366 65.3366 72 56.5 72H16.5C7.66344 72 0.5 64.8366 0.5 56V16Z" fill="#B7AEDA"/>
<path d="M48.5 16V20M24.5 16V20" stroke="#5922A9" stroke-width="3" stroke-linecap="round" stroke-linejoin="round"/>
<path d="M36.491 38H36.509M36.491 46H36.509M44.482 38H44.5M28.5 38H28.5179M28.5 46H28.5179" stroke="#5922A9" stroke-width="4" stroke-linecap="round" stroke-linejoin="round"/>
<path d="M19.5 28H53.5" stroke="#5922A9" stroke-width="3" stroke-linecap="round" stroke-linejoin="round"/>
<path d="M17.5 36.4864C17.5 27.7719 17.5 23.4146 20.0042 20.7073C22.5085 18 26.539 18 34.6 18H38.4C46.461 18 50.4916 18 52.9958 20.7073C55.5 23.4146 55.5 27.7719 55.5 36.4864V37.5136C55.5 46.2282 55.5 50.5854 52.9958 53.2928C50.4916 56 46.461 56 38.4 56H34.6C26.539 56 22.5085 56 20.0042 53.2928C17.5 50.5854 17.5 46.2282 17.5 37.5136V36.4864Z" stroke="#5922A9" stroke-width="3" stroke-linecap="round" stroke-linejoin="round"/>
<path d="M18.5 28H54.5" stroke="#5922A9" stroke-width="3" stroke-linecap="round" stroke-linejoin="round"/>
</svg>
