<svg width="72" height="72" viewBox="0 0 72 72" fill="none" xmlns="http://www.w3.org/2000/svg">
<path d="M0 16C0 7.16344 7.16344 0 16 0H56C64.8366 0 72 7.16344 72 16V56C72 64.8366 64.8366 72 56 72H16C7.16344 72 0 64.8366 0 56V16Z" fill="#FAEACC"/>
<path d="M44.6166 20.7679C43.4346 20.7679 42.8434 20.7679 42.305 20.5681C42.2302 20.5403 42.1566 20.5098 42.084 20.4766C41.562 20.2371 41.1442 19.8192 40.3082 18.9833C38.3844 17.0595 37.4226 16.0976 36.239 16.0089C36.08 15.997 35.92 15.997 35.761 16.0089C34.5774 16.0976 33.6154 17.0595 31.6917 18.9833C30.8559 19.8192 30.4379 20.2371 29.9159 20.4766C29.8434 20.5098 29.7697 20.5403 29.6949 20.5681C29.1565 20.7679 28.5655 20.7679 27.3834 20.7679H27.1654C24.1496 20.7679 22.6417 20.7679 21.7048 21.7048C20.7679 22.6417 20.7679 24.1496 20.7679 27.1654V27.3834C20.7679 28.5655 20.7679 29.1565 20.5681 29.6949C20.5403 29.7697 20.5098 29.8434 20.4766 29.9159C20.2371 30.4379 19.8192 30.8559 18.9833 31.6917C17.0595 33.6154 16.0976 34.5774 16.0089 35.761C15.997 35.92 15.997 36.08 16.0089 36.239C16.0976 37.4226 17.0595 38.3844 18.9833 40.3082C19.8192 41.1442 20.2371 41.562 20.4766 42.084C20.5098 42.1566 20.5403 42.2302 20.5681 42.305C20.7679 42.8434 20.7679 43.4346 20.7679 44.6166V44.8346C20.7679 47.8504 20.7679 49.3584 21.7048 50.2952C22.6417 51.2322 24.1496 51.2322 27.1654 51.2322H27.3834C28.5655 51.2322 29.1565 51.2322 29.6949 51.4318C29.7697 51.4596 29.8434 51.4902 29.9159 51.5234C30.4379 51.763 30.8559 52.1808 31.6917 53.0166C33.6154 54.9404 34.5774 55.9024 35.761 55.991C35.92 56.003 36.08 56.003 36.239 55.991C37.4226 55.9024 38.3844 54.9404 40.3082 53.0166C41.1442 52.1808 41.562 51.763 42.084 51.5234C42.1566 51.4902 42.2302 51.4596 42.305 51.4318C42.8434 51.2322 43.4346 51.2322 44.6166 51.2322H44.8346C47.8504 51.2322 49.3584 51.2322 50.2952 50.2952C51.2322 49.3584 51.2322 47.8504 51.2322 44.8346V44.6166C51.2322 43.4346 51.2322 42.8434 51.4318 42.305C51.4596 42.2302 51.4902 42.1566 51.5234 42.084C51.763 41.562 52.1808 41.1442 53.0166 40.3082C54.9404 38.3844 55.9024 37.4226 55.991 36.239C56.003 36.08 56.003 35.92 55.991 35.761C55.9024 34.5774 54.9404 33.6154 53.0166 31.6917C52.1808 30.8559 51.763 30.4379 51.5234 29.9159C51.4902 29.8434 51.4596 29.7697 51.4318 29.6949C51.2322 29.1565 51.2322 28.5655 51.2322 27.3834V27.1654C51.2322 24.1496 51.2322 22.6417 50.2952 21.7048C49.3584 20.7679 47.8504 20.7679 44.8346 20.7679H44.6166Z" stroke="#996400" stroke-width="3"/>
<path d="M29 45C30.3973 42.5846 33.0088 40.9594 36 40.9594C38.9912 40.9594 41.6028 42.5846 43 45M40 32C40 34.2092 38.2092 36 36 36C33.791 36 32 34.2092 32 32C32 29.7909 33.791 28 36 28C38.2092 28 40 29.7909 40 32Z" stroke="#996400" stroke-width="3" stroke-linecap="round"/>
</svg>
