<svg width="24" height="24" viewBox="0 0 24 24" fill="none" xmlns="http://www.w3.org/2000/svg">
<path d="M6.08938 14.999C5.71097 14.1484 5.5 13.2021 5.5 12.2049C5.5 8.50135 8.41015 5.49902 12 5.49902C15.5899 5.49902 18.5 8.50135 18.5 12.2049C18.5 13.2021 18.289 14.1484 17.9106 14.999" fill="#5922A9"/>
<path d="M6.08938 14.999C5.71097 14.1484 5.5 13.2021 5.5 12.2049C5.5 8.50135 8.41015 5.49902 12 5.49902C15.5899 5.49902 18.5 8.50135 18.5 12.2049C18.5 13.2021 18.289 14.1484 17.9106 14.999" stroke="#5922A9" stroke-width="1.5" stroke-linecap="round"/>
<path d="M12 1.99902V2.99902V1.99902Z" fill="#5922A9"/>
<path d="M12 1.99902V2.99902" stroke="#5922A9" stroke-width="1.5" stroke-linecap="round" stroke-linejoin="round"/>
<path d="M22 11.999H21H22Z" fill="#5922A9"/>
<path d="M22 11.999H21" stroke="#5922A9" stroke-width="1.5" stroke-linecap="round" stroke-linejoin="round"/>
<path d="M3 11.999H2H3Z" fill="#5922A9"/>
<path d="M3 11.999H2" stroke="#5922A9" stroke-width="1.5" stroke-linecap="round" stroke-linejoin="round"/>
<path d="M19.0704 4.92773L18.3633 5.63484L19.0704 4.92773Z" fill="#5922A9"/>
<path d="M19.0704 4.92773L18.3633 5.63484" stroke="#5922A9" stroke-width="1.5" stroke-linecap="round" stroke-linejoin="round"/>
<path d="M5.6368 5.63582L4.92969 4.92871L5.6368 5.63582Z" fill="#5922A9"/>
<path d="M5.6368 5.63582L4.92969 4.92871" stroke="#5922A9" stroke-width="1.5" stroke-linecap="round" stroke-linejoin="round"/>
<path d="M14.5155 19.3055C15.5259 18.9786 15.9311 18.0538 16.0451 17.1236C16.0791 16.8458 15.8505 16.6152 15.5705 16.6152L8.47539 16.6154C8.18579 16.6155 7.95321 16.8612 7.98779 17.1488C8.09944 18.0771 8.38124 18.7553 9.45199 19.3055M14.5155 19.3055C14.5155 19.3055 9.62825 19.3055 9.45199 19.3055H14.5155ZM14.5155 19.3055C14.394 21.2505 13.8323 22.0207 12.0053 21.9991C10.0511 22.0352 9.60157 21.0831 9.45199 19.3055" fill="#5922A9"/>
<path d="M14.5155 19.3055C15.5259 18.9786 15.9311 18.0538 16.0451 17.1236C16.0791 16.8458 15.8505 16.6152 15.5705 16.6152L8.47539 16.6154C8.18579 16.6155 7.95321 16.8612 7.98779 17.1488C8.09944 18.0771 8.38124 18.7553 9.45199 19.3055M14.5155 19.3055C14.5155 19.3055 9.62825 19.3055 9.45199 19.3055M14.5155 19.3055C14.394 21.2505 13.8323 22.0207 12.0053 21.9991C10.0511 22.0352 9.60157 21.0831 9.45199 19.3055" stroke="#5922A9" stroke-width="1.5" stroke-linecap="round" stroke-linejoin="round"/>
</svg>
