<svg width="20" height="20" viewBox="0 0 20 20" fill="none" xmlns="http://www.w3.org/2000/svg">
<path fill-rule="evenodd" clip-rule="evenodd" d="M5.83325 6.66668H5.41679V16.6667H14.5833V6.66668H14.1666H5.83325ZM16.2499 6.66668V16.6667H16.6669C17.1271 16.6667 17.5002 16.2936 17.5002 15.8333V7.50001C17.5002 7.03978 17.1271 6.66668 16.6669 6.66668H16.2499ZM3.33358 6.66668H3.75012V16.6667H3.33358C2.87334 16.6667 2.50024 16.2936 2.50024 15.8333V7.50001C2.50024 7.03978 2.87334 6.66668 3.33358 6.66668ZM14.1666 5H16.6666C18.0473 5 19.1666 6.11929 19.1666 7.5V15.8333C19.1666 17.214 18.0473 18.3333 16.6666 18.3333H3.33325C1.95254 18.3333 0.833252 17.214 0.833252 15.8333V7.5C0.833252 6.11929 1.95254 5 3.33325 5H5.83325C5.83326 3.61929 6.95254 2.50001 8.33325 2.50001H11.6666C13.0473 2.50001 14.1666 3.61929 14.1666 5ZM7.50024 4.99999C7.50024 4.53976 7.87334 4.16666 8.33358 4.16666H11.6669C12.1271 4.16666 12.5002 4.53976 12.5002 4.99999H7.50024Z" fill="#313033"/>
</svg>
