<svg width="30" height="30" viewBox="0 0 30 30" fill="none" xmlns="http://www.w3.org/2000/svg">
<path d="M6.42373 9.12969C7.90067 9.12969 9.09796 7.9324 9.09796 6.45547C9.09796 4.97854 7.90067 3.78125 6.42373 3.78125C4.9468 3.78125 3.74951 4.97854 3.74951 6.45547C3.74951 7.9324 4.9468 9.12969 6.42373 9.12969Z" fill="#2B2B39"/>
<path d="M11.6216 11.1557V25.9923H16.2282V18.6553C16.2282 16.7193 16.5924 14.8444 18.9929 14.8444C21.3603 14.8444 21.3896 17.0578 21.3896 18.7775V25.9935H25.9986V17.8572C25.9986 13.8605 25.1382 10.7891 20.4669 10.7891C18.2241 10.7891 16.7207 12.0198 16.106 13.1846H16.0436V11.1557H11.6216ZM4.11475 11.1557H8.72863V25.9923H4.11475V11.1557Z" fill="#2B2B39"/>
</svg>
