<svg width="21" height="24" viewBox="0 0 21 24" fill="none" xmlns="http://www.w3.org/2000/svg">
<path fill-rule="evenodd" clip-rule="evenodd" d="M0 10.1372C0 4.53436 4.60922 0 10.2857 0C15.9622 0 20.5714 4.53436 20.5714 10.1372C20.5714 12.9047 19.4393 15.4968 17.48 17.3821L11.0872 23.6718C10.6425 24.1094 9.92901 24.1094 9.48424 23.6719L3.08268 17.3742C1.12508 15.481 0 12.8962 0 10.1372ZM15.8859 15.7439C17.412 14.2754 18.2856 12.2753 18.2856 10.1372C18.2856 5.80519 14.708 2.28573 10.2856 2.28573C5.86314 2.28573 2.28557 5.80519 2.28557 10.1372C2.28557 12.2688 3.15373 14.2633 4.67852 15.738L10.2855 21.2539L15.8859 15.7439ZM10.2856 14.8572C12.8103 14.8572 14.857 12.8105 14.857 10.2857C14.857 7.761 12.8103 5.7143 10.2856 5.7143C7.76084 5.7143 5.71415 7.761 5.71415 10.2857C5.71415 12.8105 7.76084 14.8572 10.2856 14.8572ZM10.2854 12.5715C9.02307 12.5715 7.99972 11.5481 7.99972 10.2857C7.99972 9.02338 9.02307 8.00003 10.2854 8.00003C11.5478 8.00003 12.5711 9.02338 12.5711 10.2857C12.5711 11.5481 11.5478 12.5715 10.2854 12.5715Z" fill="#313033"/>
</svg>
