<svg width="20" height="20" viewBox="0 0 20 20" fill="none" xmlns="http://www.w3.org/2000/svg">
<path fill-rule="evenodd" clip-rule="evenodd" d="M20 3V17.1818C20 18.736 18.7487 20 17.2 20H2.8C1.25134 20 0 18.736 0 17.1818V3C0 1.34315 1.34315 0 3 0H17C18.6569 0 20 1.34315 20 3ZM18.0007 15.8293C17.6879 15.9399 17.3513 16 17.0007 16H3.00065C2.65002 16 2.31343 15.9399 2.00065 15.8293V17.1818C2.00065 17.636 2.36109 18 2.80065 18H17.2007C17.6402 18 18.0007 17.636 18.0007 17.1818V15.8293ZM18.0007 13.0001V3.00007C18.0007 2.44779 17.5529 2.00007 17.0007 2.00007H3.00065C2.44837 2.00007 2.00065 2.44779 2.00065 3.00007V13.0001C2.00065 13.5524 2.44837 14.0001 3.00065 14.0001H17.0007C17.5529 14.0001 18.0007 13.5524 18.0007 13.0001ZM11.0002 4.00004H11.9533C12.5056 4.00004 12.9533 4.44776 12.9533 5.00004V5.45429C12.9533 6.00657 12.5056 6.45429 11.9533 6.45429C11.6023 6.45429 11.2936 6.27353 11.1152 6.00004H9.01411V7.00095H11.0002C12.1047 7.00095 13.0002 7.89638 13.0002 9.00095V10C13.0002 11.1046 12.1047 12 11.0002 12C10.9954 12.5483 10.5495 12.9913 10.0002 12.9913C9.4508 12.9913 9.0049 12.5483 9.0002 12H8.00017C7.43796 12 6.98625 11.5367 7.00049 10.9747L7.01443 10.4247C7.02842 9.87255 7.48734 9.43632 8.03945 9.45031C8.42073 9.45998 8.74675 9.68183 8.90738 10H11.0002V9.00095H9.01411C7.90954 9.00095 7.01411 8.10552 7.01411 7.00095V6.00004C7.01411 4.90012 7.90202 4.00758 9.00017 4.00009C9.00016 3.44776 9.44788 3.00004 10.0002 3.00004C10.5524 3.00004 11.0002 3.44776 11.0002 4.00004Z" fill="#313033"/>
</svg>
