<svg width="18" height="18" viewBox="0 0 18 18" fill="none" xmlns="http://www.w3.org/2000/svg">
<path fill-rule="evenodd" clip-rule="evenodd" d="M2.90303 13.6979C-0.077976 10.7169 -0.077976 5.88375 2.90303 2.90274C5.88403 -0.0782583 10.7172 -0.0782583 13.6982 2.90274C16.423 5.6276 16.6572 9.9 14.4006 12.8908L17.4122 15.9024C18.1979 16.6881 17.0194 17.8666 16.2337 17.0809L13.258 14.1053C10.259 16.6721 5.74142 16.5363 2.90303 13.6979ZM12.5195 4.08127C10.1894 1.75114 6.4115 1.75114 4.08137 4.08127C1.75125 6.41139 1.75125 10.1893 4.08137 12.5194C6.4115 14.8495 10.1894 14.8495 12.5195 12.5194C14.8496 10.1893 14.8496 6.41139 12.5195 4.08127Z" fill="#313033"/>
</svg>
