<svg width="1440" height="810" viewBox="0 0 1440 810" fill="none" xmlns="http://www.w3.org/2000/svg">
<path d="M1252.88 259.5C1246.05 259.5 1240.5 265.035 1240.5 271.875C1240.5 278.715 1246.05 284.25 1252.88 284.25C1259.7 284.25 1265.25 278.715 1265.25 271.875C1265.25 265.035 1259.72 259.5 1252.88 259.5ZM1252.88 277.87C1249.57 277.87 1246.88 275.183 1246.88 271.875C1246.88 268.567 1249.57 265.88 1252.88 265.88C1256.18 265.88 1258.87 268.567 1258.87 271.875C1258.88 275.183 1256.2 277.87 1252.88 277.87Z" fill="#6743E7"/>
<path d="M970.125 51.75C963.297 51.75 957.75 57.2845 957.75 64.125C957.75 70.9655 963.297 76.5 970.125 76.5C976.953 76.5 982.5 70.9655 982.5 64.125C982.5 57.2845 976.965 51.75 970.125 51.75ZM970.125 70.1197C966.817 70.1197 964.13 67.4333 964.13 64.125C964.13 60.8167 966.817 58.1303 970.125 58.1303C973.433 58.1303 976.12 60.8167 976.12 64.125C976.132 67.4333 973.446 70.1197 970.125 70.1197Z" fill="#FF172A"/>
<circle cx="30.75" cy="771" r="88.5" fill="#FF172A"/>
<path d="M1439.62 -44.25C1398.45 -44.25 1365 -10.875 1365 30.375C1365 71.625 1398.45 105 1439.62 105C1480.8 105 1514.25 71.625 1514.25 30.375C1514.25 -10.875 1480.88 -44.25 1439.62 -44.25ZM1439.62 66.525C1419.67 66.525 1403.48 50.325 1403.48 30.375C1403.48 10.425 1419.67 -5.775 1439.62 -5.775C1459.57 -5.775 1475.77 10.425 1475.77 30.375C1475.85 50.325 1459.65 66.525 1439.62 66.525Z" fill="#F9B600"/>
<path d="M360.733 590.637L360.733 620.555L334.823 605.596L360.733 590.637Z" fill="#00F6DE"/>
<path d="M1025.98 596.637L1025.98 626.555L1000.07 611.596L1025.98 596.637Z" fill="#6743E7"/>
<rect x="509.25" y="155.25" width="17.25" height="17.25" fill="#FF172A"/>
<rect x="-5.25" y="419.25" width="31.5" height="31.5" fill="#6743E7"/>
</svg>
