<svg width="28" height="23" viewBox="0 0 28 23" fill="none" xmlns="http://www.w3.org/2000/svg">
<path d="M24.3504 4.17402C25.4974 3.48646 26.3782 2.39778 26.793 1.10061C25.7196 1.73716 24.5307 2.1995 23.2653 2.44869C22.2519 1.36902 20.8082 0.694336 19.2104 0.694336C16.1424 0.694336 13.655 3.18161 13.655 6.24947C13.655 6.68486 13.7042 7.10887 13.7989 7.51544C9.1819 7.28378 5.08854 5.07214 2.34861 1.71121C1.87043 2.53169 1.59648 3.48597 1.59648 4.50403C1.59648 6.43131 2.5773 8.13169 4.0679 9.12786C3.1572 9.09904 2.30068 8.84916 1.55161 8.43307C1.55122 8.45625 1.55122 8.47953 1.55122 8.5029C1.55122 11.1945 3.46612 13.4398 6.00747 13.9501C5.54127 14.0771 5.05051 14.1449 4.54381 14.1449C4.18586 14.1449 3.83783 14.1101 3.4987 14.0453C4.20557 16.2523 6.25715 17.8584 8.68807 17.9033C6.78684 19.3932 4.39148 20.2813 1.78882 20.2813C1.34045 20.2813 0.898225 20.2551 0.463623 20.2038C2.92207 21.7799 5.84216 22.6996 8.97936 22.6996C19.1974 22.6996 24.7851 14.2346 24.7851 6.89365C24.7851 6.65277 24.7797 6.41319 24.769 6.17499C25.8543 5.39176 26.7962 4.41331 27.541 3.29927C26.5448 3.7411 25.4741 4.03972 24.3504 4.17402Z" fill="#2B2B39"/>
</svg>
